<?xml version="1.0" encoding="utf-8"?>
<!-- Generator: Adobe Illustrator 27.7.0, SVG Export Plug-In . SVG Version: 6.00 Build 0)  -->
<svg version="1.1" id="Laag_1" xmlns="http://www.w3.org/2000/svg" xmlns:xlink="http://www.w3.org/1999/xlink" x="0px" y="0px"
	 viewBox="0 0 418.9 109.4" style="enable-background:new 0 0 418.9 109.4;" xml:space="preserve">
<style type="text/css">
	.st0{fill:#FFFFFF;}
</style>
<path class="st0" d="M330.1,14.9c-0.3-0.6-0.7-1.3-0.7-2s0.5-2.7,0.6-3c0.2,0.6,0.6,2.6,0.5,3C330.5,13.3,330.3,14.6,330.1,14.9z
	 M333.8,13.3c0.1-0.7-0.3-1.8-0.5-2.2c-0.1,0.4-0.3,2-0.4,2.5c0,0.4-0.3,1.7-0.6,2.2C333.1,15.4,333.7,13.9,333.8,13.3z M328.1,16.2
	c-0.4-0.5-1-1.6-1-2c-0.1-0.6-0.3-2.8-0.4-3.2c-0.2,0.4-0.7,2.1-0.6,2.8C326.2,14.4,327.2,15.9,328.1,16.2z M322.4,38.2
	c0.9,1,1.1,1,1.7,0.5c0.9-0.9,0.6-2,0.8-2.5c0.1-0.6,0-1.8-0.5-2.4c-1.2-0.4-1-1.9-0.4-3c0.6-1.3,3.3-3.5,6.1-3.3
	c2.9-0.1,6.4,2.9,6.6,7.7c-0.6,6.1-2.3,7.9-4.5,10.3c-4.5,4.3-10.7,15.9-10.7,23c-0.1,5.6,1.9,8.5,5.5,12.4c6.4,6.4,6.6,8.6,6.6,12
	c-0.2,4.9-4.9,8.4-6.9,9.8c-0.6,0.5-0.1,0.9,0.7,0.6c0.8-0.4,1.6-1,3.2-2c1.9-1.4,4.5-5.9,4.9-8.5c0-7.4-3.7-10.1-6.7-13.8
	c-5-6.5-4-8.8-4.2-11.4c-0.1-1.6,1-4.6,1.5-6.5c2.8-7.4,5.7-11.5,8.4-14.1c4.4-4.4,4.8-7.9,5.1-11.5c0.1-7.6-6.6-10.7-9.3-10.7
	c-2.8-0.1-5.3,1.2-6.6,2.4c-2.3,2.2-3,5.8-3,7.4C320.9,35.5,321.1,37.2,322.4,38.2z M332.7,19.2l1.3-2.9c-1.1,0.7-3,1.1-4.1,1.1
	c-0.8,0-2.7-0.2-4.2-0.8l1.2,2.6C326.9,19.2,332.7,19.2,332.7,19.2z M331.5,13.2c0-1.6-0.4-4.2-0.9-5.4c-0.2-0.3-0.4-1-0.7-2
	c0,0.6-0.2,1.1-0.5,1.9c-0.5,1.3-1.2,4.2-1.2,5.4c0,1.9,1.1,3.4,1.6,4C331.3,15.1,331.5,14.2,331.5,13.2z M329.4,17
	c-0.8-0.6-1.5-2-1.6-2.8c0-0.8-0.2-3-0.5-4.1c-0.3-0.6-0.5-1.5-1-2c0,0.7-0.1,1.2-0.5,2c-0.3,0.7-0.8,2.1-0.7,3
	c0.1,0.9,0.8,2.5,1.5,3C327.5,16.8,328.8,17,329.4,17z M333.2,16.2c0.8-0.5,1.4-2.1,1.5-3s-0.4-2.3-0.7-3c-0.4-0.8-0.4-1.3-0.5-2
	c-0.5,0.4-0.7,1.4-1,2c-0.3,1-0.5,3.3-0.5,4.1c-0.1,0.8-0.8,2.2-1.6,2.8C331,17,332.3,16.7,333.2,16.2z M328.6,21.9
	c0,0-0.4,83.3-0.2,85.2c0.2,2.8,2.2,3,2.2,0.2l0.5-85.5l1.5-2.2h-5.5L328.6,21.9z M329.6,107.4L329.6,107.4l0.7-85.3H330
	L329.6,107.4z M332.9,44.8c-0.8,1-4.9,5.2-6.2,8.4l1.9,2.2c1-1.7,2.4-5.1,5.8-8.2L332.9,44.8z M328.5,101.4l0.1,1.4l2.2-1.4l0.1-2.1
	L328.5,101.4z M8.5,23.4h5.4v-5.7H8.5v-6C8.5,9.8,8.2,6,11.2,6c1,0,1.9,0.4,2.7,0.8v-6c-1-0.5-2.1-0.8-3.2-0.8C4.2,0,1.8,5,1.8,10.8
	v6.9h-2.3v5.7h2.3v17.9h6.7V23.4z M23,37.7l-7.8,16.2h7.4l17.1-36.1h-7.5l-6,13.4l-5.6-13.4H13L23,37.7z M56.3,19.4
	c-1.9-1.7-5.1-2.4-7.6-2.4c-4.4,0-7.5,3.2-7.5,7.6c0,3.8,2.4,5.2,4.7,6.2c2.4,1,4.7,1.5,4.7,3.6c0,1.5-1.2,2.5-2.7,2.5
	c-2,0-3.7-1.3-5-2.7l-3.1,4C42,40.6,45,42,48.2,42c4.9,0,9.2-3.1,9.2-8.4c0-4.1-2.4-5.7-4.8-6.8c-2.4-1.1-4.8-1.5-4.8-3.3
	c0-1.2,1.1-2,2.2-2c1.3,0,2.6,0.7,3.6,1.6L56.3,19.4z M68.2,17.7h-6.7v23.6h6.7V17.7z M64.9,3.8c-2.2,0-4,1.8-4,4s1.8,4,4,4
	c2.2,0,4-1.8,4-4C68.8,5.7,67.1,3.8,64.9,3.8z M84.2,16.9c-7.3,0-12.4,5.2-12.4,12.6c0,7.3,5,12.5,12.4,12.5s12.4-5.2,12.4-12.5
	S91.5,16.9,84.2,16.9z M84.2,22.9c3.5,0,5.6,3.4,5.6,6.6s-2.1,6.6-5.6,6.6s-5.6-3.4-5.6-6.6S80.7,22.9,84.2,22.9z M106.6,17.7h-6.7
	v23.6h6.7V29.7c0-2.5-0.2-7.4,3.6-7.4c3.5,0,3.2,4.7,3.2,7v12h6.7V29.7c0-2.4,0-7.4,3.6-7.4c3.3,0,3.2,4.3,3.2,6.6v12.4h6.7V26.6
	c0-5.1-1.5-9.6-7.5-9.6c-2.7,0-5.4,1.4-6.9,3.7c-1.5-2.5-3.8-3.7-6.8-3.7c-2.2,0-4.5,1-5.8,2.9h-0.1v-2.2
	C106.5,17.7,106.6,17.7,106.6,17.7z M159.4,30.6v-0.8c0-7.1-3.5-12.8-11.2-12.8c-7.6,0-11.4,5.6-11.4,12.8s4.5,12.3,11.8,12.3
	c4.9,0,9.1-2.6,10.7-7.3l-6.2-1c-0.9,1.9-2.3,3.2-4.5,3.2c-3.5,0-4.7-3.4-4.7-6.3h15.5L159.4,30.6L159.4,30.6z M144.1,26.4
	c0.3-2.4,1.8-4.8,4.5-4.8c2.6,0,4.1,2.4,4.5,4.8C153.1,26.4,144.1,26.4,144.1,26.4z M178.3,41.3h6.7V0.6h-6.7v19.3h-0.1
	c-1.5-1.9-4-2.9-6.4-2.9C165,17,161,23.2,161,29.4c0,6.4,3.9,12.7,10.8,12.7c2.4,0,4.9-1.1,6.3-3h0.1L178.3,41.3L178.3,41.3z
	 M173.4,36.1c-3.5,0-5.6-3.5-5.6-6.6c0-3.2,2.1-6.6,5.6-6.6s5.6,3.4,5.6,6.6C179,32.6,176.8,36.1,173.4,36.1z M0,55.5h392.3
	 M392.3,54.7H0v1.5h392.3V54.7z M391.4,59.8c2.3,0,4.1-1.8,4.1-4.1s-1.8-4.1-4.1-4.1c-2.3,0-4.1,1.8-4.1,4.1S389.1,59.8,391.4,59.8z
	 M385,48.4l-20.1-20.2 M385.5,47.9l-20.1-20.2l-1.1,1.1L384.4,49L385.5,47.9z M383.3,36.2l4.5,10.3 M388.5,46.2L384,35.9l-1.4,0.6
	l4.5,10.3L388.5,46.2z M391.6,45.2v-27 M392.3,18.2h-1.5v27h1.5V18.2z M394.8,46l3.9-9.2 M399.4,37.1l-1.4-0.6l-3.9,9.2l1.4,0.6
	L399.4,37.1z M398.1,47.5l19.1-19.3 M417.8,28.7l-1.1-1.1l-19.1,19.3l1.1,1.1L417.8,28.7z M399.6,51.4l10.3-4.3 M410.2,47.8
	l-0.6-1.4l-10.3,4.3l0.6,1.4L410.2,47.8z M400.2,58.7l9.6,4.1 M410.1,62.2l-9.6-4.1l-0.6,1.4l9.6,4.1L410.1,62.2z M398.5,61.7
	L418.4,82 M418.9,81.4L399,61.2l-1.1,1.1l19.9,20.2L418.9,81.4z M394.8,64l5.1,10.9 M400.5,74.5l-5.1-10.9l-1.4,0.6l5.1,10.9
	L400.5,74.5z M391,65.3v28.5 M391.8,65.3h-1.5v28.5h1.5V65.3z M387.8,63.8l-4.7,11.4 M388.5,64.1l-1.4-0.6l-4.7,11.4l1.4,0.6
	L388.5,64.1z M384.1,62.1l-19.3,20.2 M384.6,62.6l-1.1-1l-19.3,20.2l1.1,1L384.6,62.6z M382.4,59.3l-10.3,4.3 M382.7,60l-0.6-1.4
	l-10.3,4.3l0.6,1.4L382.7,60z M383.1,52.3L372,47.6 M383.4,51.7l-11-4.7l-0.6,1.4l11.1,4.7L383.4,51.7z M0.2,64.4v2.4h4.1v11.1h2.8
	V66.8h4.1v-2.4H0.2z M17.8,67.7c-0.5,0-1.1,0.1-1.6,0.3c-0.5,0.2-0.9,0.6-1.3,1.2v-4.7h-2.6v13.4h2.6v-5.4c0-0.9,0.2-1.5,0.5-2
	c0.4-0.5,0.9-0.7,1.5-0.7c0.7,0,1.1,0.2,1.3,0.7c0.2,0.3,0.3,0.8,0.3,1.3v6.1h2.7V72c0-0.9,0-1.5-0.1-1.9s-0.2-0.8-0.5-1.1
	c-0.3-0.4-0.7-0.8-1.2-1C18.9,67.8,18.4,67.7,17.8,67.7z M27.6,67.7c-1.5,0-2.6,0.5-3.5,1.4s-1.4,2.2-1.4,4s0.5,3.2,1.5,4
	s2.2,1.2,3.5,1.2c1.6,0,2.8-0.5,3.7-1.5c0.6-0.6,0.9-1.2,1-1.8h-2.6c-0.2,0.3-0.3,0.5-0.5,0.7c-0.4,0.3-0.8,0.5-1.4,0.5
	s-1-0.1-1.4-0.4c-0.7-0.4-1-1.1-1-2.1h7.2c0-0.9,0-1.5-0.1-2c-0.1-0.8-0.4-1.5-0.8-2.1c-0.5-0.7-1-1.2-1.7-1.5
	C29.3,67.8,28.5,67.7,27.6,67.7z M27.6,69.8c0.6,0,1.1,0.2,1.5,0.5c0.4,0.4,0.6,0.9,0.7,1.6h-4.5c0.1-0.6,0.3-1.1,0.7-1.5
	C26.4,70,27,69.8,27.6,69.8z M49.1,68.7c0-1.5-0.4-2.5-1.2-3.2s-1.9-1-3.2-1H39V78h2.8v-5h2.8c1.5,0,2.6-0.3,3.4-1
	C48.7,71.4,49.1,70.3,49.1,68.7z M46.3,68.7c0,0.7-0.2,1.2-0.5,1.5c-0.4,0.3-0.9,0.5-1.5,0.5h-2.5v-4h2.5c0.6,0,1.1,0.2,1.5,0.5
	S46.3,68,46.3,68.7z M56.5,67.7c-0.5,0-1.1,0.1-1.6,0.3c-0.5,0.2-0.9,0.6-1.3,1.2v-4.7H51v13.4h2.6v-5.4c0-0.9,0.2-1.5,0.5-2
	c0.4-0.5,0.9-0.7,1.5-0.7c0.7,0,1.1,0.2,1.3,0.7c0.2,0.3,0.3,0.8,0.3,1.3v6.1H60V72c0-0.9,0-1.5-0.1-1.9s-0.2-0.8-0.5-1.1
	c-0.3-0.4-0.7-0.8-1.2-1S57.1,67.7,56.5,67.7z M62.6,81.9c0.3,0,0.5,0,0.6,0s0.3,0,0.6,0c1.2,0,1.9-0.2,2.3-0.7s0.9-1.6,1.6-3.5
	l3.4-9.8h-2.8l-2,7.3l-2.2-7.3h-2.9l3.7,10.4c0,0.1,0,0.3-0.2,0.6c-0.1,0.3-0.3,0.6-0.4,0.7c-0.2,0.1-0.4,0.2-0.6,0.2
	c-0.2,0-0.5,0-0.7,0h-0.3L62.6,81.9L62.6,81.9z M71.8,74.7c0,1,0.4,1.9,1.1,2.5c0.7,0.7,1.9,1,3.5,1c1.5,0,2.7-0.3,3.4-0.9
	c0.7-0.6,1.1-1.4,1.1-2.4c0-0.7-0.3-1.4-0.8-1.9s-1.3-0.9-2.3-1.1c-1.6-0.3-2.5-0.6-2.7-0.7c-0.3-0.1-0.4-0.3-0.4-0.6
	c0-0.2,0.1-0.4,0.4-0.6c0.2-0.2,0.6-0.3,1.2-0.3c0.7,0,1.2,0.2,1.5,0.5c0.2,0.2,0.2,0.5,0.3,0.8h2.6c-0.1-1.2-0.6-2.1-1.3-2.6
	c-0.8-0.5-1.8-0.7-3-0.7c-1.3,0-2.3,0.3-3,1s-1.1,1.4-1.1,2.4c0,0.8,0.2,1.4,0.7,1.8s1.3,0.8,2.4,1c1.6,0.4,2.5,0.6,2.7,0.8
	c0.3,0.2,0.4,0.4,0.4,0.7c0,0.3-0.2,0.5-0.5,0.7s-0.7,0.2-1.2,0.2c-0.9,0-1.5-0.2-1.8-0.5c-0.2-0.2-0.3-0.5-0.4-1h-2.8L71.8,74.7
	L71.8,74.7z M85.3,64.4h-2.6v2.4h2.6V64.4z M82.7,77.9h2.6v-10h-2.6V77.9z M97.2,72.9c0-1.4-0.4-2.7-1.3-3.7c-0.8-1-2.1-1.6-3.8-1.6
	c-1.7,0-3,0.5-3.8,1.6S87,71.5,87,72.9c0,1.5,0.4,2.7,1.3,3.7c0.8,1,2.1,1.6,3.8,1.6c1.7,0,3-0.5,3.8-1.6
	C96.8,75.6,97.2,74.4,97.2,72.9z M92.1,76.1c-0.8,0-1.4-0.3-1.8-0.8C90,74.7,89.7,74,89.7,73s0.2-1.8,0.6-2.3s1-0.8,1.8-0.8
	s1.4,0.3,1.8,0.8s0.6,1.3,0.6,2.3s-0.2,1.8-0.6,2.3S92.9,76.1,92.1,76.1z M103.5,71.3c0,2.2,0.5,3.9,1.6,5.1s2.6,1.9,4.5,1.9
	c1.5,0,2.8-0.5,3.8-1.4s1.6-2.1,1.8-3.6h-2.8c-0.2,0.7-0.4,1.2-0.7,1.6c-0.5,0.6-1.2,1-2.2,1c-0.9,0-1.7-0.4-2.3-1.1
	c-0.6-0.8-0.9-1.9-0.9-3.4s0.3-2.7,0.9-3.5s1.4-1.2,2.4-1.2s1.7,0.3,2.2,0.9c0.3,0.3,0.5,0.8,0.7,1.5h2.8c0-0.8-0.3-1.7-0.9-2.5
	c-1-1.5-2.7-2.2-4.9-2.2c-1.7,0-3,0.6-4.1,1.7C104.1,67.1,103.5,68.9,103.5,71.3z M126.7,72.9c0-1.4-0.4-2.7-1.3-3.7
	c-0.8-1-2.1-1.6-3.8-1.6c-1.7,0-3,0.5-3.8,1.6s-1.3,2.3-1.3,3.7c0,1.5,0.4,2.7,1.3,3.7c0.8,1,2.1,1.6,3.8,1.6c1.7,0,3-0.5,3.8-1.6
	C126.3,75.6,126.7,74.4,126.7,72.9z M121.7,76.1c-0.8,0-1.4-0.3-1.8-0.8s-0.6-1.3-0.6-2.3s0.2-1.8,0.6-2.3s1-0.8,1.8-0.8
	s1.4,0.3,1.8,0.8s0.6,1.3,0.6,2.3s-0.2,1.8-0.6,2.3C123,75.8,122.4,76.1,121.7,76.1z M139.5,67.7c-0.7,0-1.3,0.1-1.8,0.4
	s-0.9,0.7-1.3,1.3c-0.2-0.5-0.5-0.9-0.9-1.2c-0.5-0.3-1.1-0.5-1.8-0.5c-0.8,0-1.5,0.2-2,0.6c-0.3,0.2-0.6,0.6-0.9,1.1V68h-2.5v9.9
	h2.6v-6c0-0.5,0.1-0.9,0.2-1.2c0.3-0.5,0.8-0.7,1.5-0.7c0.6,0,1.1,0.2,1.3,0.7c0.1,0.3,0.2,0.7,0.2,1.3v5.9h2.6V72
	c0-0.4,0.1-0.8,0.2-1.1c0.3-0.6,0.8-0.9,1.5-0.9c0.6,0,1,0.2,1.3,0.7c0.1,0.2,0.2,0.6,0.2,0.9v6.3h2.7v-6.3c0-0.6,0-1.1-0.1-1.5
	c-0.1-0.5-0.3-0.9-0.6-1.3s-0.7-0.7-1.2-0.9C140.4,67.8,140,67.7,139.5,67.7z M150.2,67.7c-0.8,0-1.5,0.2-2.1,0.7
	c-0.3,0.2-0.6,0.6-0.9,1v-1.5h-2.5v13.9h2.6v-5.2c0.3,0.4,0.6,0.7,0.8,0.9c0.5,0.4,1.2,0.6,2,0.6c1.2,0,2.2-0.5,3-1.4s1.2-2.3,1.2-4
	s-0.4-2.9-1.2-3.8C152.4,68.2,151.4,67.7,150.2,67.7z M151.7,72.9c0,0.9-0.2,1.7-0.6,2.2c-0.4,0.6-0.9,0.8-1.6,0.8
	c-0.5,0-0.9-0.1-1.3-0.4c-0.6-0.5-1-1.3-1-2.4c0-0.7,0.1-1.3,0.3-1.8c0.4-0.9,1-1.3,1.9-1.3c0.8,0,1.4,0.3,1.7,0.9
	C151.5,71.5,151.7,72.2,151.7,72.9z M159.1,71.9c-1,0.1-1.8,0.3-2.3,0.6c-0.9,0.6-1.4,1.4-1.4,2.7c0,0.9,0.3,1.7,0.9,2.2
	c0.6,0.5,1.3,0.8,2.2,0.8c0.7,0,1.3-0.2,1.9-0.5c0.5-0.3,0.9-0.6,1.2-1c0,0.2,0,0.4,0.1,0.6c0,0.2,0.1,0.4,0.2,0.6h2.8v-0.4
	c-0.2-0.1-0.3-0.2-0.4-0.3c-0.1-0.1-0.1-0.3-0.2-0.7c0-0.5,0-0.8,0-1.2v-4.6c0-1.2-0.4-2-1.3-2.4c-0.8-0.4-1.8-0.6-2.9-0.6
	c-1.7,0-2.9,0.4-3.5,1.3c-0.4,0.6-0.7,1.3-0.7,2.1h2.5c0.1-0.4,0.2-0.7,0.4-0.9c0.3-0.3,0.7-0.5,1.3-0.5c0.5,0,1,0.1,1.2,0.2
	c0.3,0.2,0.4,0.4,0.4,0.9c0,0.3-0.2,0.6-0.6,0.7c-0.2,0.1-0.6,0.2-1,0.2L159.1,71.9z M161.6,74c0,0.9-0.3,1.5-0.7,1.8
	c-0.5,0.3-1,0.5-1.6,0.5c-0.4,0-0.7-0.1-0.9-0.3c-0.2-0.2-0.4-0.5-0.4-1s0.2-0.9,0.6-1.1c0.2-0.1,0.6-0.3,1.2-0.4l0.6-0.1
	c0.3-0.1,0.5-0.1,0.7-0.2s0.3-0.2,0.5-0.3L161.6,74L161.6,74z M171.8,67.7c-0.8,0-1.5,0.2-2,0.6c-0.3,0.2-0.6,0.6-0.9,1.1V68h-2.5
	v9.9h2.6v-5.4c0-0.6,0.1-1.1,0.3-1.5c0.3-0.8,0.9-1.1,1.8-1.1c0.7,0,1.2,0.3,1.4,0.8c0.1,0.3,0.2,0.7,0.2,1.2V78h2.7v-6.7
	c0-1.2-0.3-2.1-1-2.7C173.6,68,172.8,67.7,171.8,67.7z M177.9,81.9c0.3,0,0.5,0,0.6,0s0.3,0,0.6,0c1.2,0,1.9-0.2,2.3-0.7
	c0.4-0.5,0.9-1.6,1.6-3.5l3.4-9.8h-2.8l-2,7.3l-2.2-7.3h-2.9l3.7,10.4c0,0.1,0,0.3-0.2,0.6c-0.1,0.3-0.3,0.6-0.4,0.7
	c-0.2,0.1-0.4,0.2-0.6,0.2c-0.2,0-0.5,0-0.7,0H178v2.1C178,81.9,177.9,81.9,177.9,81.9z"/>
</svg>
